<?xml version="1.0" standalone="no"?><!DOCTYPE svg PUBLIC "-//W3C//DTD SVG 1.1//EN" "http://www.w3.org/Graphics/SVG/1.1/DTD/svg11.dtd"><svg t="1726388589889" class="icon" viewBox="0 0 1024 1024" version="1.1" xmlns="http://www.w3.org/2000/svg" p-id="999" xmlns:xlink="http://www.w3.org/1999/xlink" width="200" height="200"><path d="M431.802182 0h98.350545c85.550545 0 153.274182 0 206.289455 7.121455 54.597818 7.354182 98.769455 22.807273 133.585454 57.623272a34.909091 34.909091 0 0 1-49.338181 49.338182c-19.735273-19.642182-46.685091-31.464727-93.556364-37.748364-47.802182-6.423273-110.871273-6.516364-199.633455-6.516363h-93.090909c-88.715636 0-151.784727 0.093091-199.633454 6.516363-46.824727 6.283636-73.821091 18.106182-93.509818 37.79491-19.688727 19.688727-31.511273 46.685091-37.79491 93.509818-6.423273 47.848727-6.516364 110.871273-6.516363 199.633454v186.181818c0 88.762182 0.093091 151.831273 6.516363 199.68 6.283636 46.778182 18.106182 73.774545 37.79491 93.463273 19.688727 19.688727 46.685091 31.511273 93.556363 37.794909 47.802182 6.423273 110.871273 6.516364 199.586909 6.516364h93.090909c88.762182 0 151.831273-0.093091 199.68-6.516364 46.824727-6.283636 73.774545-18.106182 93.463273-37.794909 32.395636-32.395636 42.216727-82.711273 43.938909-200.564363a34.909091 34.909091 0 0 1 69.818182 1.024c-1.675636 112.965818-8.983273 193.536-64.372364 248.92509-34.816 34.816-78.987636 50.269091-133.585454 57.623273-53.015273 7.121455-120.738909 7.121455-206.289455 7.121455H431.802182c-85.550545 0-153.274182 0-206.336-7.121455-54.551273-7.354182-98.722909-22.807273-133.585455-57.623273-34.816-34.862545-50.269091-79.034182-57.623272-133.585454-7.121455-53.061818-7.121455-120.785455-7.121455-206.336V404.666182c0-85.550545 0-153.320727 7.121455-206.336 7.354182-54.551273 22.807273-98.722909 57.669818-133.585455C126.743273 29.928727 170.914909 14.475636 225.512727 7.121455 278.481455 0 346.205091 0 431.755636 0z m333.730909 269.777455a126.417455 126.417455 0 1 1 178.734545 178.734545l-221.323636 221.370182a326.981818 326.981818 0 0 1-29.323636 27.322182c-10.705455 8.378182-22.341818 15.546182-34.583273 21.410909-10.472727 4.980364-21.410909 8.610909-37.562182 13.963636l-97.000727 32.349091a59.578182 59.578182 0 0 1-75.357091-75.403636l31.650909-94.952728 0.698182-2.001454c5.352727-16.151273 9.029818-27.089455 13.963636-37.515637a187.578182 187.578182 0 0 1 21.410909-34.629818c7.121455-9.122909 15.266909-17.268364 27.322182-29.323636l1.442909-1.442909 219.880727-219.880727z m129.396364 49.338181a56.599273 56.599273 0 0 0-80.058182 0l-8.471273 8.471273 1.629091 4.980364c4.375273 12.567273 12.660364 29.323636 28.392727 45.056a118.830545 118.830545 0 0 0 50.036364 30.021818l8.471273-8.471273a56.599273 56.599273 0 0 0 0-80.058182zM833.163636 460.986182a190.045091 190.045091 0 0 1-46.08-33.978182 190.045091 190.045091 0 0 1-33.978181-46.08l-158.11491 158.068364c-14.010182 14.010182-18.944 19.037091-23.086545 24.343272-5.259636 6.749091-9.774545 14.056727-13.405091 21.736728-2.932364 6.097455-5.213091 12.753455-11.450182 31.557818l-18.618182 55.854545 13.125819 13.172364 55.854545-18.618182c18.850909-6.283636 25.460364-8.564364 31.557818-11.450182 7.726545-3.723636 14.987636-8.192 21.736728-13.451636 5.352727-4.142545 10.333091-9.076364 24.343272-23.086546L833.163636 460.986182zM259.863273 360.727273a34.909091 34.909091 0 0 1 34.909091-34.909091h302.545454a34.909091 34.909091 0 0 1 0 69.818182h-302.545454a34.909091 34.909091 0 0 1-34.909091-34.909091z m0 186.181818a34.909091 34.909091 0 0 1 34.909091-34.909091h116.363636a34.909091 34.909091 0 0 1 0 69.818182h-116.363636a34.909091 34.909091 0 0 1-34.909091-34.909091z m0 186.181818a34.909091 34.909091 0 0 1 34.909091-34.909091h69.818181a34.909091 34.909091 0 0 1 0 69.818182h-69.818181a34.909091 34.909091 0 0 1-34.909091-34.909091z" fill="#ffffff" p-id="1000"></path></svg>